<svg width="367" height="84" viewBox="0 0 367 84" fill="none" xmlns="http://www.w3.org/2000/svg">
<path d="M179.442 81.2254C178.284 81.2254 177.399 80.9102 176.787 80.2798C175.966 79.5065 175.555 78.3924 175.555 76.9374C175.555 75.4531 175.966 74.339 176.787 73.595C177.399 72.9646 178.284 72.6494 179.442 72.6494C180.6 72.6494 181.485 72.9646 182.097 73.595C182.914 74.339 183.323 75.4531 183.323 76.9374C183.323 78.3924 182.914 79.5065 182.097 80.2798C181.485 80.9102 180.6 81.2254 179.442 81.2254ZM181.042 79.0484C181.434 78.5536 181.63 77.85 181.63 76.9374C181.63 76.0285 181.432 75.3267 181.036 74.8319C180.644 74.3335 180.113 74.0842 179.442 74.0842C178.771 74.0842 178.236 74.3316 177.837 74.8264C177.437 75.3212 177.237 76.0248 177.237 76.9374C177.237 77.85 177.437 78.5536 177.837 79.0484C178.236 79.5432 178.771 79.7906 179.442 79.7906C180.113 79.7906 180.646 79.5432 181.042 79.0484ZM191.8 81H189.623L187.122 77.4597L186.314 78.2898V81H184.648V72.8968H186.314V76.2337L189.442 72.8968H191.63L188.309 76.2337L191.8 81ZM192.625 72.8968H194.307V81H192.625V72.8968ZM202.432 72.8968L199.722 77.9544V81H198.029V77.9544L195.225 72.8968H197.221L198.903 76.4261L200.514 72.8968H202.432ZM207.11 79.3343H204.125L203.565 81H201.794L204.686 72.8968H206.599L209.469 81H207.633L207.11 79.3343ZM206.638 77.9379L205.626 74.7494L204.582 77.9379H206.638ZM212.053 81H210.475V72.8968H212.938L214.411 79.2683L215.873 72.8968H218.309V81H216.731V75.5191C216.731 75.3615 216.733 75.1416 216.736 74.8594C216.74 74.5735 216.742 74.3536 216.742 74.1997L215.208 81H213.564L212.042 74.1997C212.042 74.3536 212.043 74.5735 212.047 74.8594C212.051 75.1416 212.053 75.3615 212.053 75.5191V81ZM224.625 79.3343H221.64L221.079 81H219.309L222.201 72.8968H224.114L226.984 81H225.148L224.625 79.3343ZM224.152 77.9379L223.141 74.7494L222.096 77.9379H224.152ZM235.703 80.8021C235.255 81.077 234.706 81.2144 234.053 81.2144C232.98 81.2144 232.1 80.8424 231.415 80.0984C230.7 79.3508 230.343 78.3283 230.343 77.0309C230.343 75.7188 230.704 74.667 231.426 73.8753C232.148 73.0837 233.102 72.6879 234.29 72.6879C235.32 72.6879 236.146 72.9499 236.769 73.474C237.396 73.9944 237.755 74.645 237.847 75.4256H236.181C236.053 74.8722 235.739 74.4856 235.241 74.2657C234.962 74.1447 234.653 74.0842 234.312 74.0842C233.659 74.0842 233.122 74.3316 232.701 74.8264C232.283 75.3175 232.074 76.0578 232.074 77.0474C232.074 78.0442 232.302 78.7497 232.756 79.1639C233.21 79.578 233.727 79.7851 234.306 79.7851C234.874 79.7851 235.34 79.622 235.703 79.2958C236.065 78.966 236.289 78.5353 236.373 78.0039H234.499V76.6515H237.874V81H236.753L236.582 79.9885C236.256 80.3733 235.963 80.6445 235.703 80.8021ZM242.937 77.8225H241.189V81H239.534V72.8968H243.509C244.077 72.9078 244.513 72.9774 244.817 73.1057C245.125 73.234 245.385 73.4227 245.598 73.6719C245.774 73.8772 245.913 74.1044 246.016 74.3536C246.118 74.6028 246.17 74.8869 246.17 75.2057C246.17 75.5905 246.073 75.9699 245.878 76.3437C245.684 76.7138 245.363 76.9759 244.916 77.1298C245.29 77.2801 245.554 77.4945 245.708 77.773C245.865 78.0479 245.944 78.4694 245.944 79.0374V79.5817C245.944 79.9518 245.959 80.2029 245.988 80.3348C246.032 80.5437 246.135 80.6976 246.296 80.7966V81H244.432C244.381 80.8204 244.345 80.6757 244.323 80.5657C244.279 80.3385 244.255 80.1058 244.251 79.8675L244.24 79.1144C244.233 78.5976 244.137 78.2531 243.954 78.0809C243.775 77.9086 243.436 77.8225 242.937 77.8225ZM243.965 76.3492C244.302 76.1952 244.471 75.8911 244.471 75.4366C244.471 74.9455 244.308 74.6157 243.982 74.4471C243.798 74.3518 243.524 74.3041 243.157 74.3041H241.189V76.4811H243.108C243.489 76.4811 243.775 76.4371 243.965 76.3492ZM252.376 79.3343H249.391L248.83 81H247.06L249.952 72.8968H251.865L254.735 81H252.899L252.376 79.3343ZM251.903 77.9379L250.892 74.7494L249.847 77.9379H251.903ZM259.259 81H255.768V72.8968H259.259C259.761 72.9041 260.179 72.9628 260.512 73.0727C261.081 73.2596 261.54 73.6023 261.892 74.1007C262.175 74.5039 262.367 74.94 262.47 75.4091C262.572 75.8782 262.623 76.3254 262.623 76.7505C262.623 77.828 262.407 78.7406 261.975 79.4882C261.388 80.4961 260.483 81 259.259 81ZM260.518 74.9638C260.258 74.524 259.743 74.3041 258.973 74.3041H257.412V79.5927H258.973C259.772 79.5927 260.329 79.1987 260.644 78.4107C260.817 77.9782 260.903 77.4633 260.903 76.8659C260.903 76.0413 260.775 75.4073 260.518 74.9638ZM268.698 77.8775V72.8968H270.419V77.8775C270.419 78.7387 270.285 79.4094 270.018 79.8895C269.519 80.7691 268.568 81.2089 267.164 81.2089C265.761 81.2089 264.808 80.7691 264.306 79.8895C264.038 79.4094 263.904 78.7387 263.904 77.8775V72.8968H265.625V77.8775C265.625 78.4345 265.691 78.8413 265.823 79.0979C266.028 79.5523 266.475 79.7796 267.164 79.7796C267.85 79.7796 268.295 79.5523 268.5 79.0979C268.632 78.8413 268.698 78.4345 268.698 77.8775ZM276.785 79.3343H273.8L273.239 81H271.469L274.36 72.8968H276.274L279.143 81H277.307L276.785 79.3343ZM276.312 77.9379L275.301 74.7494L274.256 77.9379H276.312ZM285.229 72.8968V74.3316H282.805V81H281.1V74.3316H278.665V72.8968H285.229ZM286.092 72.8968H287.774V81H286.092V72.8968ZM292.942 81.2254C291.784 81.2254 290.899 80.9102 290.287 80.2798C289.466 79.5065 289.055 78.3924 289.055 76.9374C289.055 75.4531 289.466 74.339 290.287 73.595C290.899 72.9646 291.784 72.6494 292.942 72.6494C294.1 72.6494 294.985 72.9646 295.597 73.595C296.414 74.339 296.823 75.4531 296.823 76.9374C296.823 78.3924 296.414 79.5065 295.597 80.2798C294.985 80.9102 294.1 81.2254 292.942 81.2254ZM294.542 79.0484C294.934 78.5536 295.13 77.85 295.13 76.9374C295.13 76.0285 294.932 75.3267 294.536 74.8319C294.144 74.3335 293.612 74.0842 292.942 74.0842C292.271 74.0842 291.736 74.3316 291.337 74.8264C290.937 75.3212 290.737 76.0248 290.737 76.9374C290.737 77.85 290.937 78.5536 291.337 79.0484C291.736 79.5432 292.271 79.7906 292.942 79.7906C293.612 79.7906 294.146 79.5432 294.542 79.0484ZM304.673 81H302.98L299.671 75.2442V81H298.093V72.8968H299.869L303.096 78.5536V72.8968H304.673V81ZM312.831 78.0864H311.111V81H309.429V72.8968H312.958C313.772 72.8968 314.42 73.1057 314.904 73.5235C315.388 73.9413 315.63 74.5882 315.63 75.4641C315.63 76.4206 315.388 77.0968 314.904 77.4926C314.42 77.8885 313.729 78.0864 312.831 78.0864ZM313.623 76.3987C313.843 76.2044 313.953 75.8966 313.953 75.4751C313.953 75.0536 313.841 74.7531 313.618 74.5735C313.398 74.3939 313.088 74.3041 312.689 74.3041H311.111V76.69H312.689C313.088 76.69 313.4 76.5929 313.623 76.3987ZM320.341 77.8225H318.593V81H316.938V72.8968H320.913C321.481 72.9078 321.917 72.9774 322.221 73.1057C322.529 73.234 322.789 73.4227 323.002 73.6719C323.178 73.8772 323.317 74.1044 323.42 74.3536C323.522 74.6028 323.573 74.8869 323.573 75.2057C323.573 75.5905 323.476 75.9699 323.282 76.3437C323.088 76.7138 322.767 76.9759 322.32 77.1298C322.694 77.2801 322.958 77.4945 323.112 77.773C323.269 78.0479 323.348 78.4694 323.348 79.0374V79.5817C323.348 79.9518 323.363 80.2029 323.392 80.3348C323.436 80.5437 323.539 80.6976 323.7 80.7966V81H321.836C321.785 80.8204 321.748 80.6757 321.726 80.5657C321.682 80.3385 321.658 80.1058 321.655 79.8675L321.644 79.1144C321.637 78.5976 321.541 78.2531 321.358 78.0809C321.178 77.9086 320.839 77.8225 320.341 77.8225ZM321.369 76.3492C321.706 76.1952 321.875 75.8911 321.875 75.4366C321.875 74.9455 321.712 74.6157 321.385 74.4471C321.202 74.3518 320.927 74.3041 320.561 74.3041H318.593V76.4811H320.511C320.893 76.4811 321.178 76.4371 321.369 76.3492ZM328.62 81.2254C327.462 81.2254 326.577 80.9102 325.965 80.2798C325.144 79.5065 324.733 78.3924 324.733 76.9374C324.733 75.4531 325.144 74.339 325.965 73.595C326.577 72.9646 327.462 72.6494 328.62 72.6494C329.778 72.6494 330.663 72.9646 331.275 73.595C332.093 74.339 332.501 75.4531 332.501 76.9374C332.501 78.3924 332.093 79.5065 331.275 80.2798C330.663 80.9102 329.778 81.2254 328.62 81.2254ZM330.22 79.0484C330.612 78.5536 330.808 77.85 330.808 76.9374C330.808 76.0285 330.61 75.3267 330.214 74.8319C329.822 74.3335 329.291 74.0842 328.62 74.0842C327.949 74.0842 327.414 74.3316 327.015 74.8264C326.615 75.3212 326.416 76.0248 326.416 76.9374C326.416 77.85 326.615 78.5536 327.015 79.0484C327.414 79.5432 327.949 79.7906 328.62 79.7906C329.291 79.7906 329.824 79.5432 330.22 79.0484ZM336.69 78.5646V72.8968H338.383V78.5372C338.383 79.2262 338.264 79.7722 338.026 80.1754C337.623 80.8571 336.896 81.1979 335.844 81.1979C334.792 81.1979 334.086 80.923 333.727 80.3733C333.368 79.8199 333.188 79.0667 333.188 78.1139V77.9269H334.788V78.1139C334.803 78.7406 334.871 79.1822 334.992 79.4387C335.116 79.6916 335.38 79.8181 335.783 79.8181C336.183 79.8181 336.447 79.6788 336.575 79.4002C336.652 79.2353 336.69 78.9568 336.69 78.5646ZM345.706 77.4597H341.77V79.5432H346.256V81H340.115V72.8968H346.058V74.3316H341.77V76.0523H345.706V77.4597ZM353.293 80.3953C352.688 80.9487 351.914 81.2254 350.973 81.2254C349.807 81.2254 348.891 80.8516 348.224 80.1039C347.557 79.3526 347.223 78.3228 347.223 77.0144C347.223 75.5997 347.603 74.5094 348.361 73.7434C349.021 73.0764 349.86 72.7429 350.879 72.7429C352.243 72.7429 353.239 73.19 353.87 74.0842C354.218 74.5863 354.405 75.0903 354.43 75.596H352.737C352.627 75.2075 352.486 74.9143 352.314 74.7164C352.006 74.3646 351.55 74.1887 350.945 74.1887C350.329 74.1887 349.844 74.4379 349.488 74.9363C349.133 75.4311 348.955 76.1329 348.955 77.0419C348.955 77.9508 349.142 78.6324 349.516 79.0869C349.893 79.5377 350.372 79.7631 350.951 79.7631C351.544 79.7631 351.997 79.5688 352.308 79.1804C352.481 78.9714 352.624 78.6581 352.737 78.2403H354.414C354.267 79.1235 353.894 79.8419 353.293 80.3953ZM361.599 72.8968V74.3316H359.175V81H357.471V74.3316H355.035V72.8968H361.599Z" fill="white"/>
<path d="M28.5967 65H5.55376V14.1538H30.2525C36.4847 14.2457 40.9001 16.051 43.4987 19.5695C45.0625 21.7312 45.8444 24.3184 45.8444 27.331C45.8444 30.4356 45.0625 32.9308 43.4987 34.8165C42.6248 35.8744 41.337 36.8402 39.6352 37.7141C42.2339 38.657 44.1886 40.1518 45.4995 42.1985C46.8333 44.2453 47.5002 46.7289 47.5002 49.6495C47.5002 52.6621 46.7413 55.3643 45.2235 57.756C44.2576 59.3428 43.0503 60.6766 41.6015 61.7574C39.9687 62.9993 38.0369 63.8502 35.8062 64.3101C33.5985 64.77 31.1954 65 28.5967 65ZM28.3552 42.6125H15.6954V56.1692H28.1828C30.4135 56.1692 32.1497 55.8702 33.3916 55.2723C35.6453 54.1684 36.7721 52.0527 36.7721 48.9251C36.7721 46.2805 35.6798 44.4637 33.495 43.4749C32.2762 42.9229 30.5629 42.6355 28.3552 42.6125ZM33.633 32.9193C35.0128 32.0914 35.7028 30.6081 35.7028 28.4694C35.7028 26.1007 34.7829 24.5369 32.9431 23.778C31.3563 23.249 29.3326 22.9846 26.8719 22.9846H15.6954V34.1956H28.1828C30.4135 34.1956 32.2302 33.7701 33.633 32.9193ZM66.7735 36.4723C62.818 36.4723 60.1618 37.7601 58.805 40.3358C58.0461 41.7846 57.6667 44.0153 57.6667 47.0279V65H47.7665V27.4H57.1492V33.9541C58.667 31.4475 59.9894 29.7342 61.1162 28.8143C62.956 27.2735 65.3477 26.5031 68.2913 26.5031C68.4752 26.5031 68.6247 26.5146 68.7397 26.5376C68.8777 26.5376 69.1652 26.5491 69.6021 26.5721V36.6448C68.9812 36.5758 68.4292 36.5298 67.9463 36.5068C67.4634 36.4838 67.0724 36.4723 66.7735 36.4723ZM98.9825 32.1604C102.156 36.1388 103.743 40.8417 103.743 46.269C103.743 51.7883 102.156 56.5141 98.9825 60.4466C95.809 64.3561 90.9911 66.3108 84.529 66.3108C78.0668 66.3108 73.249 64.3561 70.0754 60.4466C66.9018 56.5141 65.315 51.7883 65.315 46.269C65.315 40.8417 66.9018 36.1388 70.0754 32.1604C73.249 28.1819 78.0668 26.1927 84.529 26.1927C90.9911 26.1927 95.809 28.1819 98.9825 32.1604ZM84.4945 34.5061C81.6198 34.5061 79.4006 35.5294 77.8368 37.5761C76.296 39.5999 75.5256 42.4975 75.5256 46.269C75.5256 50.0405 76.296 52.9496 77.8368 54.9963C79.4006 57.0431 81.6198 58.0664 84.4945 58.0664C87.3691 58.0664 89.5768 57.0431 91.1176 54.9963C92.6584 52.9496 93.4288 50.0405 93.4288 46.269C93.4288 42.4975 92.6584 39.5999 91.1176 37.5761C89.5768 35.5294 87.3691 34.5061 84.4945 34.5061ZM131.571 65L125.672 37.6106L119.705 65H109.494L98.9384 27.4H109.494L115.358 54.3754L120.774 27.4H130.743L136.469 54.4789L142.334 27.4H152.579L141.678 65H131.571ZM176.164 29.1248C179.108 31.0105 180.798 34.2531 181.235 38.8525H171.404C171.266 37.5876 170.909 36.5873 170.334 35.8514C169.253 34.5175 167.414 33.8506 164.815 33.8506C162.676 33.8506 161.147 34.1841 160.227 34.851C159.33 35.5179 158.882 36.2998 158.882 37.1967C158.882 38.3235 159.365 39.1399 160.331 39.6459C161.296 40.1748 164.711 41.0832 170.576 42.371C174.485 43.2909 177.417 44.6822 179.372 46.545C181.304 48.4307 182.27 50.7879 182.27 53.6165C182.27 57.342 180.878 60.3891 178.096 62.7578C175.336 65.1035 171.059 66.2763 165.263 66.2763C159.353 66.2763 154.984 65.0345 152.155 62.5508C149.35 60.0442 147.947 56.8591 147.947 52.9956H157.916C158.123 54.7434 158.571 55.9852 159.261 56.7211C160.48 58.0319 162.734 58.6873 166.022 58.6873C167.954 58.6873 169.483 58.3999 170.61 57.825C171.76 57.25 172.335 56.3876 172.335 55.2378C172.335 54.1339 171.875 53.2946 170.955 52.7196C170.035 52.1447 166.62 51.1558 160.71 49.753C156.456 48.6952 153.454 47.3728 151.707 45.7861C149.959 44.2223 149.085 41.9686 149.085 39.025C149.085 35.5524 150.442 32.5743 153.156 30.0906C155.892 27.584 159.733 26.3306 164.677 26.3306C169.368 26.3306 173.197 27.262 176.164 29.1248ZM213.996 53.9615C213.743 56.1922 212.581 58.4574 210.512 60.7571C207.292 64.4136 202.785 66.2418 196.99 66.2418C192.206 66.2418 187.986 64.701 184.33 61.6194C180.673 58.5379 178.845 53.5245 178.845 46.5794C178.845 40.0713 180.489 35.081 183.778 31.6084C187.089 28.1359 191.378 26.3996 196.645 26.3996C199.772 26.3996 202.589 26.9861 205.096 28.1589C207.603 29.3317 209.672 31.183 211.305 33.7127C212.777 35.9434 213.731 38.5305 214.168 41.4741C214.421 43.1989 214.525 45.6826 214.479 48.9251H188.745C188.883 52.6966 190.067 55.3413 192.298 56.8591C193.655 57.802 195.288 58.2734 197.197 58.2734C199.22 58.2734 200.865 57.6985 202.129 56.5486C202.819 55.9277 203.429 55.0653 203.958 53.9615H213.996ZM204.268 42.44C204.107 39.8413 203.314 37.8751 201.888 36.5413C200.485 35.1845 198.737 34.5061 196.645 34.5061C194.368 34.5061 192.597 35.219 191.332 36.6448C190.09 38.0706 189.309 40.0023 188.987 42.44H204.268ZM232.269 36.4723C228.313 36.4723 225.657 37.7601 224.3 40.3358C223.541 41.7846 223.162 44.0153 223.162 47.0279V65H213.262V27.4H222.644V33.9541C224.162 31.4475 225.485 29.7342 226.611 28.8143C228.451 27.2735 230.843 26.5031 233.786 26.5031C233.97 26.5031 234.12 26.5146 234.235 26.5376C234.373 26.5376 234.66 26.5491 235.097 26.5721V36.6448C234.476 36.5758 233.924 36.5298 233.442 36.5068C232.959 36.4838 232.568 36.4723 232.269 36.4723ZM255.534 65H245.634V14.1538H261.088L270.332 54.1339L279.508 14.1538H294.79V65H284.889V30.6081C284.889 29.6192 284.901 28.2394 284.924 26.4686C284.947 24.6749 284.958 23.295 284.958 22.3292L275.334 65H265.02L255.465 22.3292C255.465 23.295 255.476 24.6749 255.499 26.4686C255.522 28.2394 255.534 29.6192 255.534 30.6081V65ZM296.056 14.1538H306.612V65H296.056V14.1538ZM330.68 65H308.775V14.1538H330.68C333.831 14.1997 336.452 14.5677 338.545 15.2576C342.109 16.4305 344.996 18.5807 347.203 21.7083C348.974 24.2379 350.181 26.9746 350.825 29.9182C351.469 32.8618 351.791 35.6674 351.791 38.335C351.791 45.0961 350.434 50.8224 347.721 55.5138C344.041 61.8379 338.361 65 330.68 65ZM338.579 27.124C336.947 24.3644 333.716 22.9846 328.886 22.9846H319.09V56.1692H328.886C333.9 56.1692 337.395 53.697 339.373 48.7527C340.454 46.039 340.994 42.8079 340.994 39.0594C340.994 33.8851 340.189 29.9067 338.579 27.124ZM351.23 14.1538H361.785V65H351.23V14.1538Z" fill="white"/>
</svg>
