<svg width="367" height="84" viewBox="0 0 367 84" fill="none" xmlns="http://www.w3.org/2000/svg">
<path d="M183.669 73.595C184.329 74.339 184.501 75.4531 184.186 76.9374C183.875 78.3924 183.228 79.5065 182.246 80.2798C181.502 80.9102 180.551 81.2254 179.392 81.2254C178.234 81.2254 177.415 80.9102 176.935 80.2798C176.279 79.5065 176.107 78.3924 176.418 76.9374C176.734 75.4531 177.38 74.339 178.359 73.595C179.103 72.9646 180.054 72.6494 181.212 72.6494C182.37 72.6494 183.189 72.9646 183.669 73.595ZM180.91 74.0842C180.239 74.0842 179.651 74.3316 179.145 74.8264C178.643 75.3212 178.295 76.0248 178.101 76.9374C177.906 77.85 177.956 78.5536 178.249 79.0484C178.542 79.5432 179.024 79.7906 179.695 79.7906C180.365 79.7906 180.95 79.5432 181.448 79.0484C181.951 78.5536 182.299 77.85 182.493 76.9374C182.684 76.0285 182.634 75.3267 182.345 74.8319C182.059 74.3335 181.58 74.0842 180.91 74.0842ZM186.885 78.2898L186.314 81H184.648L186.369 72.8968H188.034L187.325 76.2337L191.162 72.8968H193.35L189.321 76.2337L191.8 81H189.623L187.869 77.4597L186.885 78.2898ZM192.625 81L194.345 72.8968H196.028L194.307 81H192.625ZM202.234 72.8968H204.153L200.365 77.9544L199.722 81H198.029L198.672 77.9544L196.946 72.8968H198.941L199.87 76.4261L202.234 72.8968ZM208.32 72.8968L209.469 81H207.633L207.462 79.3343H204.477L203.565 81H201.794L206.407 72.8968H208.32ZM206.951 74.7494L205.23 77.9379H207.286L206.951 74.7494ZM215.208 81H213.564L213.482 74.1997C213.453 74.3536 213.409 74.5735 213.35 74.8594C213.295 75.1416 213.249 75.3615 213.213 75.5191L212.053 81H210.475L212.196 72.8968H214.658L214.774 79.2683L217.594 72.8968H220.029L218.309 81H216.731L217.891 75.5191C217.928 75.3615 217.977 75.1416 218.039 74.8594C218.105 74.5735 218.153 74.3536 218.182 74.1997L215.208 81ZM225.835 72.8968L226.984 81H225.148L224.977 79.3343H221.992L221.079 81H219.309L223.922 72.8968H225.835ZM224.466 74.7494L222.745 77.9379H224.801L224.466 74.7494ZM235.131 78.0039L235.422 76.6515H238.798L237.874 81H236.753L236.797 79.9885C236.386 80.3733 236.034 80.6445 235.741 80.8021C235.235 81.077 234.656 81.2144 234.004 81.2144C232.93 81.2144 232.129 80.8424 231.601 80.0984C231.048 79.3508 230.909 78.3283 231.184 77.0309C231.462 75.7188 232.047 74.667 232.937 73.8753C233.828 73.0837 234.867 72.6879 236.054 72.6879C237.084 72.6879 237.856 72.9499 238.369 73.474C238.882 73.9944 239.102 74.645 239.029 75.4256H237.363C237.352 74.8722 237.121 74.4856 236.67 74.2657C236.417 74.1447 236.12 74.0842 235.78 74.0842C235.127 74.0842 234.539 74.3316 234.015 74.8264C233.491 75.3175 233.122 76.0578 232.91 77.0474C232.701 78.0442 232.778 78.7497 233.141 79.1639C233.507 79.578 233.98 79.7851 234.559 79.7851C235.127 79.7851 235.627 79.622 236.06 79.2958C236.496 78.966 236.811 78.5353 237.005 78.0039H235.131ZM244.41 80.5657C244.414 80.3385 244.44 80.1058 244.487 79.8675L244.636 79.1144C244.739 78.5976 244.717 78.2531 244.57 78.0809C244.427 77.9086 244.106 77.8225 243.608 77.8225H241.86L241.189 81H239.534L241.255 72.8968H245.23C245.794 72.9078 246.215 72.9774 246.494 73.1057C246.773 73.234 246.992 73.4227 247.154 73.6719C247.286 73.8772 247.375 74.1044 247.423 74.3536C247.474 74.6028 247.467 74.8869 247.401 75.2057C247.317 75.5905 247.137 75.9699 246.862 76.3437C246.591 76.7138 246.215 76.9759 245.735 77.1298C246.076 77.2801 246.294 77.4945 246.39 77.773C246.489 78.0479 246.478 78.4694 246.357 79.0374L246.241 79.5817C246.164 79.9518 246.126 80.2029 246.126 80.3348C246.126 80.5437 246.195 80.6976 246.335 80.7966L246.296 81H244.432C244.418 80.8204 244.41 80.6757 244.41 80.5657ZM244.575 74.3041H242.607L242.146 76.4811H244.064C244.445 76.4811 244.74 76.4371 244.949 76.3492C245.319 76.1952 245.554 75.8911 245.653 75.4366C245.756 74.9455 245.662 74.6157 245.373 74.4471C245.208 74.3518 244.942 74.3041 244.575 74.3041ZM253.586 72.8968L254.735 81H252.899L252.728 79.3343H249.743L248.83 81H247.06L251.673 72.8968H253.586ZM252.217 74.7494L250.496 77.9379H252.552L252.217 74.7494ZM263.355 74.1007C263.553 74.5039 263.651 74.94 263.651 75.4091C263.655 75.8782 263.613 76.3254 263.525 76.7505C263.294 77.828 262.884 78.7406 262.294 79.4882C261.495 80.4961 260.483 81 259.259 81H255.768L257.489 72.8968H260.98C261.478 72.9041 261.883 72.9628 262.195 73.0727C262.722 73.2596 263.109 73.6023 263.355 74.1007ZM261.777 76.8659C261.953 76.0413 261.958 75.4091 261.793 74.9693C261.628 74.5259 261.161 74.3041 260.392 74.3041H258.83L257.709 79.5927H259.27C260.069 79.5927 260.71 79.1987 261.194 78.4107C261.458 77.9782 261.652 77.4633 261.777 76.8659ZM272.14 72.8968L271.079 77.8775C270.895 78.7387 270.619 79.4094 270.248 79.8895C269.563 80.7691 268.519 81.2089 267.115 81.2089C265.711 81.2089 264.852 80.7691 264.537 79.8895C264.372 79.4094 264.381 78.7387 264.564 77.8775L265.625 72.8968H267.346L266.285 77.8775C266.167 78.4345 266.147 78.8413 266.224 79.0979C266.334 79.5523 266.734 79.7796 267.423 79.7796C268.108 79.7796 268.601 79.5523 268.902 79.0979C269.088 78.8413 269.241 78.4345 269.358 77.8775L270.419 72.8968H272.14ZM277.994 72.8968L279.143 81H277.307L277.137 79.3343H274.152L273.239 81H271.469L276.081 72.8968H277.994ZM276.625 74.7494L274.905 77.9379H276.961L276.625 74.7494ZM280.078 74.3316L280.386 72.8968H286.95L286.642 74.3316H284.217L282.805 81H281.1L282.513 74.3316H280.078ZM286.092 81L287.813 72.8968H289.495L287.774 81H286.092ZM297.169 73.595C297.829 74.339 298.001 75.4531 297.686 76.9374C297.375 78.3924 296.728 79.5065 295.745 80.2798C295.001 80.9102 294.05 81.2254 292.892 81.2254C291.734 81.2254 290.915 80.9102 290.435 80.2798C289.779 79.5065 289.607 78.3924 289.918 76.9374C290.233 75.4531 290.88 74.339 291.859 73.595C292.603 72.9646 293.554 72.6494 294.712 72.6494C295.87 72.6494 296.689 72.9646 297.169 73.595ZM294.41 74.0842C293.739 74.0842 293.151 74.3316 292.645 74.8264C292.143 75.3212 291.795 76.0248 291.6 76.9374C291.406 77.85 291.456 78.5536 291.749 79.0484C292.042 79.5432 292.524 79.7906 293.195 79.7906C293.865 79.7906 294.45 79.5432 294.948 79.0484C295.45 78.5536 295.799 77.85 295.993 76.9374C296.183 76.0285 296.134 75.3267 295.844 74.8319C295.559 74.3335 295.08 74.0842 294.41 74.0842ZM302.98 81L300.891 75.2442L299.671 81H298.093L299.814 72.8968H301.589L303.612 78.5536L304.816 72.8968H306.394L304.673 81H302.98ZM316.493 73.5235C316.885 73.9413 316.989 74.5882 316.806 75.4641C316.601 76.4206 316.214 77.0968 315.646 77.4926C315.078 77.8885 314.345 78.0864 313.447 78.0864H311.726L311.111 81H309.429L311.149 72.8968H314.679C315.492 72.8968 316.097 73.1057 316.493 73.5235ZM314.107 74.3041H312.529L312.023 76.69H313.601C314.001 76.69 314.332 76.5929 314.596 76.3987C314.86 76.2044 315.036 75.8966 315.124 75.4751C315.216 75.0536 315.168 74.7531 314.981 74.5735C314.798 74.3939 314.506 74.3041 314.107 74.3041ZM321.814 80.5657C321.818 80.3385 321.844 80.1058 321.891 79.8675L322.04 79.1144C322.142 78.5976 322.12 78.2531 321.974 78.0809C321.831 77.9086 321.51 77.8225 321.012 77.8225H319.263L318.593 81H316.938L318.659 72.8968H322.633C323.198 72.9078 323.619 72.9774 323.898 73.1057C324.176 73.234 324.396 73.4227 324.557 73.6719C324.689 73.8772 324.779 74.1044 324.827 74.3536C324.878 74.6028 324.871 74.8869 324.805 75.2057C324.721 75.5905 324.541 75.9699 324.266 76.3437C323.995 76.7138 323.619 76.9759 323.139 77.1298C323.48 77.2801 323.698 77.4945 323.793 77.773C323.892 78.0479 323.881 78.4694 323.76 79.0374L323.645 79.5817C323.568 79.9518 323.529 80.2029 323.529 80.3348C323.529 80.5437 323.599 80.6976 323.738 80.7966L323.7 81H321.836C321.822 80.8204 321.814 80.6757 321.814 80.5657ZM321.979 74.3041H320.011L319.549 76.4811H321.468C321.849 76.4811 322.144 76.4371 322.353 76.3492C322.723 76.1952 322.958 75.8911 323.057 75.4366C323.159 74.9455 323.066 74.6157 322.776 74.4471C322.611 74.3518 322.346 74.3041 321.979 74.3041ZM332.848 73.595C333.507 74.339 333.68 75.4531 333.364 76.9374C333.053 78.3924 332.406 79.5065 331.424 80.2798C330.68 80.9102 329.729 81.2254 328.571 81.2254C327.412 81.2254 326.593 80.9102 326.113 80.2798C325.457 79.5065 325.285 78.3924 325.596 76.9374C325.912 75.4531 326.559 74.339 327.537 73.595C328.281 72.9646 329.232 72.6494 330.39 72.6494C331.548 72.6494 332.367 72.9646 332.848 73.595ZM330.088 74.0842C329.417 74.0842 328.829 74.3316 328.323 74.8264C327.821 75.3212 327.473 76.0248 327.279 76.9374C327.084 77.85 327.134 78.5536 327.427 79.0484C327.72 79.5432 328.202 79.7906 328.873 79.7906C329.544 79.7906 330.128 79.5432 330.627 79.0484C331.129 78.5536 331.477 77.85 331.671 76.9374C331.862 76.0285 331.812 75.3267 331.523 74.8319C331.237 74.3335 330.759 74.0842 330.088 74.0842ZM340.104 72.8968L338.906 78.5372C338.759 79.2262 338.523 79.7722 338.197 80.1754C337.651 80.8571 336.852 81.1979 335.8 81.1979C334.748 81.1979 334.101 80.923 333.859 80.3733C333.617 79.8199 333.597 79.0667 333.799 78.1139L333.837 77.9269H335.437L335.398 78.1139C335.281 78.7406 335.255 79.1822 335.321 79.4387C335.391 79.6916 335.627 79.8181 336.031 79.8181C336.43 79.8181 336.723 79.6788 336.91 79.4002C337.024 79.2353 337.123 78.9568 337.207 78.5646L338.411 72.8968H340.104ZM346.564 79.5432L346.256 81H340.115L341.836 72.8968H347.779L347.471 74.3316H343.183L342.82 76.0523H346.756L346.454 77.4597H342.518L342.078 79.5432H346.564ZM355.338 74.0842C355.579 74.5863 355.658 75.0903 355.574 75.596H353.881C353.855 75.2075 353.776 74.9143 353.644 74.7164C353.413 74.3646 352.996 74.1887 352.391 74.1887C351.775 74.1887 351.236 74.4379 350.775 74.9363C350.313 75.4311 349.987 76.1329 349.796 77.0419C349.602 77.9508 349.644 78.6324 349.923 79.0869C350.201 79.5377 350.63 79.7631 351.209 79.7631C351.803 79.7631 352.297 79.5688 352.693 79.1804C352.91 78.9714 353.118 78.6581 353.32 78.2403H354.997C354.663 79.1235 354.135 79.8419 353.413 80.3953C352.695 80.9487 351.865 81.2254 350.923 81.2254C349.758 81.2254 348.92 80.8516 348.411 80.1039C347.905 79.3526 347.791 78.3228 348.07 77.0144C348.37 75.5997 348.981 74.5094 349.901 73.7434C350.703 73.0764 351.614 72.7429 352.633 72.7429C353.996 72.7429 354.898 73.19 355.338 74.0842ZM356.448 74.3316L356.756 72.8968H363.32L363.012 74.3316H360.588L359.175 81H357.471L358.883 74.3316H356.448Z" fill="white"/>
<path d="M28.5967 65H5.55376V14.1538H30.2525C36.4847 14.2457 40.9001 16.051 43.4987 19.5695C45.0625 21.7312 45.8444 24.3184 45.8444 27.331C45.8444 30.4356 45.0625 32.9308 43.4987 34.8165C42.6248 35.8744 41.337 36.8402 39.6352 37.7141C42.2339 38.657 44.1886 40.1518 45.4995 42.1985C46.8333 44.2453 47.5002 46.7289 47.5002 49.6495C47.5002 52.6621 46.7413 55.3643 45.2235 57.756C44.2576 59.3428 43.0503 60.6766 41.6015 61.7574C39.9687 62.9993 38.0369 63.8502 35.8062 64.3101C33.5985 64.77 31.1954 65 28.5967 65ZM28.3552 42.6125H15.6954V56.1692H28.1828C30.4135 56.1692 32.1497 55.8702 33.3916 55.2723C35.6453 54.1684 36.7721 52.0527 36.7721 48.9251C36.7721 46.2805 35.6798 44.4637 33.495 43.4749C32.2762 42.9229 30.5629 42.6355 28.3552 42.6125ZM33.633 32.9193C35.0128 32.0914 35.7028 30.6081 35.7028 28.4694C35.7028 26.1007 34.7829 24.5369 32.9431 23.778C31.3563 23.249 29.3326 22.9846 26.8719 22.9846H15.6954V34.1956H28.1828C30.4135 34.1956 32.2302 33.7701 33.633 32.9193ZM66.7735 36.4723C62.818 36.4723 60.1618 37.7601 58.805 40.3358C58.0461 41.7846 57.6667 44.0153 57.6667 47.0279V65H47.7665V27.4H57.1492V33.9541C58.667 31.4475 59.9894 29.7342 61.1162 28.8143C62.956 27.2735 65.3477 26.5031 68.2913 26.5031C68.4752 26.5031 68.6247 26.5146 68.7397 26.5376C68.8777 26.5376 69.1652 26.5491 69.6021 26.5721V36.6448C68.9812 36.5758 68.4292 36.5298 67.9463 36.5068C67.4634 36.4838 67.0724 36.4723 66.7735 36.4723ZM98.9825 32.1604C102.156 36.1388 103.743 40.8417 103.743 46.269C103.743 51.7883 102.156 56.5141 98.9825 60.4466C95.809 64.3561 90.9911 66.3108 84.529 66.3108C78.0668 66.3108 73.249 64.3561 70.0754 60.4466C66.9018 56.5141 65.315 51.7883 65.315 46.269C65.315 40.8417 66.9018 36.1388 70.0754 32.1604C73.249 28.1819 78.0668 26.1927 84.529 26.1927C90.9911 26.1927 95.809 28.1819 98.9825 32.1604ZM84.4945 34.5061C81.6198 34.5061 79.4006 35.5294 77.8368 37.5761C76.296 39.5999 75.5256 42.4975 75.5256 46.269C75.5256 50.0405 76.296 52.9496 77.8368 54.9963C79.4006 57.0431 81.6198 58.0664 84.4945 58.0664C87.3691 58.0664 89.5768 57.0431 91.1176 54.9963C92.6584 52.9496 93.4288 50.0405 93.4288 46.269C93.4288 42.4975 92.6584 39.5999 91.1176 37.5761C89.5768 35.5294 87.3691 34.5061 84.4945 34.5061ZM131.571 65L125.672 37.6106L119.705 65H109.494L98.9384 27.4H109.494L115.358 54.3754L120.774 27.4H130.743L136.469 54.4789L142.334 27.4H152.579L141.678 65H131.571ZM176.164 29.1248C179.108 31.0105 180.798 34.2531 181.235 38.8525H171.404C171.266 37.5876 170.909 36.5873 170.334 35.8514C169.253 34.5175 167.414 33.8506 164.815 33.8506C162.676 33.8506 161.147 34.1841 160.227 34.851C159.33 35.5179 158.882 36.2998 158.882 37.1967C158.882 38.3235 159.365 39.1399 160.331 39.6459C161.296 40.1748 164.711 41.0832 170.576 42.371C174.485 43.2909 177.417 44.6822 179.372 46.545C181.304 48.4307 182.27 50.7879 182.27 53.6165C182.27 57.342 180.878 60.3891 178.096 62.7578C175.336 65.1035 171.059 66.2763 165.263 66.2763C159.353 66.2763 154.984 65.0345 152.155 62.5508C149.35 60.0442 147.947 56.8591 147.947 52.9956H157.916C158.123 54.7434 158.571 55.9852 159.261 56.7211C160.48 58.0319 162.734 58.6873 166.022 58.6873C167.954 58.6873 169.483 58.3999 170.61 57.825C171.76 57.25 172.335 56.3876 172.335 55.2378C172.335 54.1339 171.875 53.2946 170.955 52.7196C170.035 52.1447 166.62 51.1558 160.71 49.753C156.456 48.6952 153.454 47.3728 151.707 45.7861C149.959 44.2223 149.085 41.9686 149.085 39.025C149.085 35.5524 150.442 32.5743 153.156 30.0906C155.892 27.584 159.733 26.3306 164.677 26.3306C169.368 26.3306 173.197 27.262 176.164 29.1248ZM213.996 53.9615C213.743 56.1922 212.581 58.4574 210.512 60.7571C207.292 64.4136 202.785 66.2418 196.99 66.2418C192.206 66.2418 187.986 64.701 184.33 61.6194C180.673 58.5379 178.845 53.5245 178.845 46.5794C178.845 40.0713 180.489 35.081 183.778 31.6084C187.089 28.1359 191.378 26.3996 196.645 26.3996C199.772 26.3996 202.589 26.9861 205.096 28.1589C207.603 29.3317 209.672 31.183 211.305 33.7127C212.777 35.9434 213.731 38.5305 214.168 41.4741C214.421 43.1989 214.525 45.6826 214.479 48.9251H188.745C188.883 52.6966 190.067 55.3413 192.298 56.8591C193.655 57.802 195.288 58.2734 197.197 58.2734C199.22 58.2734 200.865 57.6985 202.129 56.5486C202.819 55.9277 203.429 55.0653 203.958 53.9615H213.996ZM204.268 42.44C204.107 39.8413 203.314 37.8751 201.888 36.5413C200.485 35.1845 198.737 34.5061 196.645 34.5061C194.368 34.5061 192.597 35.219 191.332 36.6448C190.09 38.0706 189.309 40.0023 188.987 42.44H204.268ZM232.269 36.4723C228.313 36.4723 225.657 37.7601 224.3 40.3358C223.541 41.7846 223.162 44.0153 223.162 47.0279V65H213.262V27.4H222.644V33.9541C224.162 31.4475 225.485 29.7342 226.611 28.8143C228.451 27.2735 230.843 26.5031 233.786 26.5031C233.97 26.5031 234.12 26.5146 234.235 26.5376C234.373 26.5376 234.66 26.5491 235.097 26.5721V36.6448C234.476 36.5758 233.924 36.5298 233.442 36.5068C232.959 36.4838 232.568 36.4723 232.269 36.4723ZM255.534 65H245.634V14.1538H261.088L270.332 54.1339L279.508 14.1538H294.79V65H284.889V30.6081C284.889 29.6192 284.901 28.2394 284.924 26.4686C284.947 24.6749 284.958 23.295 284.958 22.3292L275.334 65H265.02L255.465 22.3292C255.465 23.295 255.476 24.6749 255.499 26.4686C255.522 28.2394 255.534 29.6192 255.534 30.6081V65ZM296.056 14.1538H306.612V65H296.056V14.1538ZM330.68 65H308.775V14.1538H330.68C333.831 14.1997 336.452 14.5677 338.545 15.2576C342.109 16.4305 344.996 18.5807 347.203 21.7083C348.974 24.2379 350.181 26.9746 350.825 29.9182C351.469 32.8618 351.791 35.6674 351.791 38.335C351.791 45.0961 350.434 50.8224 347.721 55.5138C344.041 61.8379 338.361 65 330.68 65ZM338.579 27.124C336.947 24.3644 333.716 22.9846 328.886 22.9846H319.09V56.1692H328.886C333.9 56.1692 337.395 53.697 339.373 48.7527C340.454 46.039 340.994 42.8079 340.994 39.0594C340.994 33.8851 340.189 29.9067 338.579 27.124ZM351.23 14.1538H361.785V65H351.23V14.1538Z" fill="white"/>
</svg>
